# xmcd
#
# Track frame offsets:
# 150
# 14254
# 28419
# 40978
# 54328
# 64315
# 81039
# 100745
# 118562
# 133064
# 143425
# 164908
# 176765
# 191216
#
# Disc length: 2672 seconds
#
#
# Revision: 0
# Processed by: cddbd v1.5.1PL2 Copyright (c) Steve Scherf et al.
# Submitted via: FreeRIP 2.945 
#
DISCID=c80a6e0e
DTITLE=Festival Sesi de Violeiros - Festival Sesi de Violeiros
DYEAR=0006
DGENRE=Country
TTITLE0=Velho Carreiro
TTITLE1=Agradecendo a Deus
TTITLE2=O Brasil pede socorro
TTITLE3=Meu Pagode
TTITLE4=Recordação de Um Carreiro
TTITLE5=Alerta do Criador
TTITLE6=Tempo de Boi
TTITLE7=Paz Mundial
TTITLE8=Paisagem da MInha Terra
TTITLE9=Velhas Tradições
TTITLE10=Arquivo do Passado
TTITLE11=Meu Pedido
TTITLE12=Passado de um Peão
TTITLE13=Pagode da Verdade
EXTD=
EXTT0=
EXTT1=
EXTT2=
EXTT3=
EXTT4=
EXTT5=
EXTT6=
EXTT7=
EXTT8=
EXTT9=
EXTT10=
EXTT11=
EXTT12=
EXTT13=
PLAYORDER=
